<?xml version="1.0" standalone="no"?>
<svg xmlns:xlink="http://www.w3.org/1999/xlink" id="wave" style="transform:rotate(180deg); transition: 0.3s" viewBox="0 0 1440 170" version="1.1" xmlns="http://www.w3.org/2000/svg"><defs><linearGradient id="sw-gradient-0" x1="0" x2="0" y1="1" y2="0"><stop stop-color="rgba(162, 207, 79, 1)" offset="0%"/><stop stop-color="rgba(162, 207, 79, 1)" offset="100%"/></linearGradient></defs><path style="transform:translate(0, 0px); opacity:1" fill="url(#sw-gradient-0)" d="M0,102L40,96.3C80,91,160,79,240,70.8C320,62,400,57,480,70.8C560,85,640,119,720,121.8C800,125,880,96,960,96.3C1040,96,1120,125,1200,130.3C1280,136,1360,119,1440,119C1520,119,1600,136,1680,141.7C1760,147,1840,142,1920,136C2000,130,2080,125,2160,127.5C2240,130,2320,142,2400,121.8C2480,102,2560,51,2640,28.3C2720,6,2800,11,2880,22.7C2960,34,3040,51,3120,70.8C3200,91,3280,113,3360,102C3440,91,3520,45,3600,34C3680,23,3760,45,3840,48.2C3920,51,4000,34,4080,28.3C4160,23,4240,28,4320,42.5C4400,57,4480,79,4560,93.5C4640,108,4720,113,4800,116.2C4880,119,4960,119,5040,119C5120,119,5200,119,5280,99.2C5360,79,5440,40,5520,31.2C5600,23,5680,45,5720,56.7L5760,68L5760,170L5720,170C5680,170,5600,170,5520,170C5440,170,5360,170,5280,170C5200,170,5120,170,5040,170C4960,170,4880,170,4800,170C4720,170,4640,170,4560,170C4480,170,4400,170,4320,170C4240,170,4160,170,4080,170C4000,170,3920,170,3840,170C3760,170,3680,170,3600,170C3520,170,3440,170,3360,170C3280,170,3200,170,3120,170C3040,170,2960,170,2880,170C2800,170,2720,170,2640,170C2560,170,2480,170,2400,170C2320,170,2240,170,2160,170C2080,170,2000,170,1920,170C1840,170,1760,170,1680,170C1600,170,1520,170,1440,170C1360,170,1280,170,1200,170C1120,170,1040,170,960,170C880,170,800,170,720,170C640,170,560,170,480,170C400,170,320,170,240,170C160,170,80,170,40,170L0,170Z"/></svg>